<?xml version="1.0" encoding="utf-8"?>
<!-- Generator: Adobe Illustrator 22.0.1, SVG Export Plug-In . SVG Version: 6.00 Build 0)  -->
<svg version="1.1" id="Layer_1" xmlns="http://www.w3.org/2000/svg" xmlns:xlink="http://www.w3.org/1999/xlink" x="0px" y="0px"
	 viewBox="0 0 110 110" style="enable-background:new 0 0 110 110;" xml:space="preserve">
<style type="text/css">
	.st0{opacity:0.3;enable-background:new    ;}
	.st1{fill:#3E3E3F;}
	.st2{fill:#E2E4E5;}
	.st3{fill:#F0F1F1;}
	.st4{fill:#FFFFFF;}
	.st5{fill:#CFD3D4;}
	.st6{fill:#5B5C5F;}
	.st7{display:none;}
	.st8{display:inline;fill:#FFFFFF;}
	.st9{font-family:'MyriadPro-Regular';}
	.st10{font-size:18px;}
</style>
<g id="Artboard">
</g>
<g id="Multicolor">
	<circle class="st0" cx="55" cy="55" r="55"/>
	<g>
		<path class="st1" d="M87,73.7c0,1.6-1.3,2.9-2.9,2.9H25.9c-1.6,0-2.9-1.3-2.9-2.9V33c0-1.6,1.3-2.9,2.9-2.9h58.2
			c1.6,0,2.9,1.3,2.9,2.9V73.7z"/>
		<rect x="46.3" y="76.6" class="st2" width="17.5" height="7.5"/>
		<path class="st3" d="M69.5,85.5c0,0.8-0.7,1.5-1.5,1.5H41.9c-0.8,0-1.5-0.7-1.5-1.5s0.7-1.5,1.5-1.5h26.2
			C68.9,84.1,69.5,84.7,69.5,85.5z"/>
		<path class="st4" d="M87,73.7V65H23v8.7c0,1.6,1.3,2.9,2.9,2.9h58.2C85.7,76.6,87,75.3,87,73.7z"/>
		<path class="st5" d="M55,74.9c-2.2,0-3.9-1.8-3.9-3.9c0-2.2,1.8-3.9,3.9-3.9s3.9,1.8,3.9,3.9S57.2,74.9,55,74.9z M55,69.1
			c-1.1,0-1.9,0.9-1.9,1.9c0,1.1,0.9,1.9,1.9,1.9s1.9-0.9,1.9-1.9C56.9,69.9,56.1,69.1,55,69.1z"/>
		<path class="st6" d="M23,32.9v32h19.7L77.6,30H25.9C24.3,30,23,31.3,23,32.9z"/>
		<g class="st7">
			<path class="st8" d="M30.4,37.5c0-1.1,0.4-1.7,1.1-1.7s1.1,0.6,1.1,1.7c0,1.1-0.4,1.7-1.1,1.7S30.4,38.6,30.4,37.5z M32.2,37.5
				c0-1-0.2-1.4-0.6-1.4S31,36.5,31,37.5s0.2,1.4,0.6,1.4C31.9,38.9,32.2,38.5,32.2,37.5z M31.5,37.2c0.2,0,0.3,0.1,0.3,0.3
				s-0.1,0.3-0.3,0.3c-0.2,0-0.3-0.1-0.3-0.3S31.3,37.2,31.5,37.2z"/>
			<path class="st8" d="M34.4,36.3l-0.8,0.5l-0.2-0.3l1.1-0.7h0.4v3h0.7v0.4h-1.9v-0.4h0.8L34.4,36.3L34.4,36.3z"/>
			<path class="st8" d="M41.1,36.3l0.2,0.3l-1.7,1l1.7,1L41,39l-1.8-1.2v-0.4L41.1,36.3z"/>
			<path class="st8" d="M43.7,39.2v-1.6h-1.2v1.6H42v-3.3h0.5v1.4h1.2v-1.4h0.5v3.3H43.7z"/>
			<path class="st8" d="M46.3,36.2v3h-0.5v-3h-1v-0.4h2.5v0.4H46.3z"/>
			<path class="st8" d="M49.8,39.2l-0.1-1.7c0-0.5,0-1,0-1.1l0,0l-0.5,2.2h-0.4l-0.6-2.2l0,0c0,0.1,0,0.7,0,1.1l-0.1,1.7h-0.4
				l0.2-3.3h0.6l0.5,2.2l0,0l0.5-2.2h0.6l0.2,3.3H49.8z"/>
			<path class="st8" d="M51,39.2v-3.3h0.5v2.9H53v0.4H51z"/>
			<path class="st8" d="M55.8,37.4v0.4L54,39l-0.2-0.3l1.7-1l-1.7-1l0.2-0.3L55.8,37.4z"/>
			<path class="st8" d="M30.4,43.3c0-1.1,0.4-1.7,1.1-1.7s1.1,0.6,1.1,1.7c0,1.1-0.4,1.7-1.1,1.7S30.4,44.4,30.4,43.3z M32.2,43.3
				c0-1-0.2-1.4-0.6-1.4S31,42.3,31,43.3s0.2,1.4,0.6,1.4C31.9,44.7,32.2,44.3,32.2,43.3z M31.5,43c0.2,0,0.3,0.1,0.3,0.3
				s-0.1,0.3-0.3,0.3c-0.2,0-0.3-0.1-0.3-0.3S31.3,43,31.5,43z"/>
			<path class="st8" d="M33.9,44.6h1.5V45h-2v-0.4c1.2-1.1,1.5-1.6,1.5-2.1c0-0.4-0.2-0.6-0.6-0.6c-0.3,0-0.5,0.1-0.7,0.4l-0.3-0.2
				c0.3-0.3,0.6-0.5,1-0.5c0.6,0,1,0.4,1,0.9C35.3,43.1,34.9,43.7,33.9,44.6z"/>
			<path class="st8" d="M41.1,42.1l0.2,0.3l-1.7,1l1.7,1L41,44.8l-1.8-1.2v-0.4L41.1,42.1z"/>
			<path class="st8" d="M43,45h-0.9v-3.3H43c0.6,0,1.2,0.2,1.2,0.8c0,0.4-0.3,0.6-0.6,0.7l0,0c0.3,0.1,0.7,0.3,0.7,0.8
				C44.3,44.7,43.7,45,43,45z M43.1,42h-0.5v1h0.5c0.4,0,0.6-0.2,0.6-0.5C43.7,42.1,43.5,42,43.1,42z M43.1,43.4h-0.5v1.2h0.5
				c0.3,0,0.7-0.1,0.7-0.6C43.8,43.5,43.5,43.4,43.1,43.4z"/>
			<path class="st8" d="M46,45c-0.8,0-1.2-0.7-1.2-1.7s0.4-1.7,1.2-1.7s1.2,0.7,1.2,1.7C47.3,44.3,46.9,45,46,45z M46,42
				c-0.5,0-0.8,0.5-0.8,1.4s0.2,1.3,0.8,1.3c0.5,0,0.8-0.5,0.8-1.3C46.8,42.4,46.6,42,46,42z"/>
			<path class="st8" d="M48.7,45h-0.8v-3.3h0.7c0.8,0,1.6,0.3,1.6,1.7C50.2,44.7,49.4,45,48.7,45z M48.7,42h-0.4v2.6h0.4
				c0.5,0,1-0.2,1-1.3S49.2,42,48.7,42z"/>
			<path class="st8" d="M52.1,43.7V45h-0.5v-1.3l-1.1-2.1H51l0.9,1.6l0,0l0.9-1.6h0.5L52.1,43.7z"/>
			<path class="st8" d="M55.8,43.2v0.4L54,44.8l-0.2-0.3l1.7-1l-1.7-1l0.2-0.3L55.8,43.2z"/>
			<path class="st8" d="M30.4,49.1c0-1.1,0.4-1.7,1.1-1.7s1.1,0.6,1.1,1.7c0,1.1-0.4,1.7-1.1,1.7S30.4,50.2,30.4,49.1z M32.2,49.1
				c0-1-0.2-1.4-0.6-1.4S31,48.1,31,49.1s0.2,1.4,0.6,1.4C31.9,50.5,32.2,50.1,32.2,49.1z M31.5,48.8c0.2,0,0.3,0.1,0.3,0.3
				s-0.1,0.3-0.3,0.3c-0.2,0-0.3-0.1-0.3-0.3C31.2,48.9,31.3,48.8,31.5,48.8z"/>
			<path class="st8" d="M34.3,50.8c-0.4,0-0.8-0.1-1-0.5l0.3-0.2c0.2,0.2,0.5,0.3,0.7,0.3c0.5,0,0.7-0.3,0.7-0.7
				c0-0.5-0.3-0.6-0.7-0.6H34l0.1-0.3h0.2c0.3,0,0.6-0.2,0.6-0.6c0-0.4-0.3-0.5-0.6-0.5s-0.5,0.1-0.7,0.3l-0.2-0.3
				c0.3-0.3,0.6-0.4,1-0.4c0.6,0,1,0.4,1,0.8c0,0.4-0.3,0.7-0.6,0.8l0,0c0.4,0,0.7,0.3,0.7,0.8C35.5,50.4,35,50.8,34.3,50.8z"/>
			<path class="st8" d="M41.1,47.9l0.2,0.3l-1.7,1l1.7,1L41,50.6l-1.8-1.2V49L41.1,47.9z"/>
			<path class="st8" d="M43.7,50.8v-1.6h-1.2v1.6H42v-3.3h0.5v1.4h1.2v-1.4h0.5v3.3H43.7L43.7,50.8z"/>
			<path class="st8" d="M45.6,47.8v1.1h1.2v0.4h-1.2v1.1h1.5v0.4h-2v-3.3H47v0.3H45.6z"/>
			<path class="st8" d="M49.6,49.9h-1.3L48,50.8h-0.5l1.1-3.3h0.6l1.1,3.3h-0.5L49.6,49.9z M48.4,49.6h1.1L49,47.9l0,0L48.4,49.6z"
				/>
			<path class="st8" d="M51.6,50.8h-0.8v-3.3h0.7c0.8,0,1.6,0.3,1.6,1.7C53.1,50.5,52.3,50.8,51.6,50.8z M51.6,47.8h-0.4v2.6h0.4
				c0.5,0,1-0.2,1-1.3S52.1,47.8,51.6,47.8z"/>
			<path class="st8" d="M54.3,47.8v1.1h1.2v0.4h-1.2v1.1h1.5v0.4h-2v-3.3h1.9l-0.1,0.4h-1.3V47.8z"/>
			<path class="st8" d="M58,49.3l1,1.5h-0.5l-0.9-1.4h-0.4v1.4h-0.5v-3.3h0.9c0.8,0,1.3,0.3,1.3,0.9C58.8,48.9,58.5,49.2,58,49.3z
				 M57.6,47.8h-0.5V49h0.5c0.5,0,0.7-0.2,0.7-0.6C58.3,48,58.1,47.8,57.6,47.8z"/>
			<path class="st8" d="M61.6,49v0.4l-1.8,1.2l-0.2-0.3l1.7-1l-1.7-1l0.2-0.3L61.6,49z"/>
			<path class="st8" d="M30.4,54.9c0-1.1,0.4-1.7,1.1-1.7s1.1,0.6,1.1,1.7c0,1.1-0.4,1.7-1.1,1.7C30.8,56.6,30.4,56,30.4,54.9z
				 M32.2,54.9c0-1-0.2-1.4-0.6-1.4S31,53.9,31,54.9s0.2,1.4,0.6,1.4C31.9,56.3,32.2,55.9,32.2,54.9z M31.5,54.6
				c0.2,0,0.3,0.1,0.3,0.3s-0.1,0.3-0.3,0.3c-0.2,0-0.3-0.1-0.3-0.3C31.2,54.7,31.3,54.6,31.5,54.6z"/>
			<path class="st8" d="M35.1,55.8v0.8h-0.4v-0.8h-1.4v-0.3l1-2.3l0.4,0.2l-0.9,2.1h0.9v-0.9h0.4v0.9h0.4v0.4h-0.4V55.8z"/>
			<path class="st8" d="M41.1,53.7l0.2,0.3l-1.7,1l1.7,1L41,56.4l-1.8-1.2v-0.4L41.1,53.7z"/>
			<path class="st8" d="M42.3,57.1l-0.4-0.2l2.1-4.3l0.4,0.2L42.3,57.1z"/>
			<path class="st8" d="M46.6,56.6V55h-1.2v1.6H45v-3.3h0.5v1.4h1.2v-1.4h0.5v3.3C47.1,56.6,46.6,56.6,46.6,56.6z"/>
			<path class="st8" d="M48.5,53.6v1.1h1.2v0.4h-1.2v1.1H50v0.4h-2v-3.3h2l-0.1,0.4h-1.4V53.6z"/>
			<path class="st8" d="M52.5,55.7h-1.3l-0.3,0.8h-0.5l1.1-3.3h0.6l1.1,3.3h-0.5L52.5,55.7z M51.3,55.4h1.1l-0.5-1.7l0,0L51.3,55.4z
				"/>
			<path class="st8" d="M54.5,56.6h-0.8v-3.3h0.7c0.8,0,1.6,0.3,1.6,1.7C56,56.3,55.2,56.6,54.5,56.6z M54.5,53.6h-0.4v2.6h0.4
				c0.5,0,1-0.2,1-1.3S55,53.6,54.5,53.6z"/>
			<path class="st8" d="M57.2,53.6v1.1h1.2v0.4h-1.2v1.1h1.5v0.4h-2v-3.3h1.9l-0.1,0.4h-1.3V53.6z"/>
			<path class="st8" d="M60.9,55.1l1,1.5h-0.5l-0.9-1.4H60v1.4h-0.5v-3.3h0.9c0.8,0,1.3,0.3,1.3,0.9C61.7,54.7,61.4,55,60.9,55.1z
				 M60.5,53.6H60v1.2h0.5c0.5,0,0.7-0.2,0.7-0.6C61.2,53.8,61,53.6,60.5,53.6z"/>
			<path class="st8" d="M64.5,54.9v0.4l-1.8,1.2l-0.2-0.3l1.7-1l-1.7-1l0.2-0.3L64.5,54.9z"/>
		</g>
	</g>
</g>
<text transform="matrix(1 0 0 1 46.3002 22.3428)" class="st9 st10">C3</text>
</svg>
