<?xml version="1.0" encoding="utf-8"?>
<!-- Generator: Adobe Illustrator 22.0.1, SVG Export Plug-In . SVG Version: 6.00 Build 0)  -->
<svg version="1.1" id="Layer_1" xmlns="http://www.w3.org/2000/svg" xmlns:xlink="http://www.w3.org/1999/xlink" x="0px" y="0px"
	 viewBox="0 0 110 110" style="enable-background:new 0 0 110 110;" xml:space="preserve">
<style type="text/css">
	.st0{fill:#515151;}
	.st1{fill:#3E3E3F;}
	.st2{fill:#FA5655;}
	.st3{fill:#F99134;}
	.st4{fill:#FACB1B;}
	.st5{fill:#818284;}
	.st6{opacity:0.26;enable-background:new    ;}
	.st7{fill:#FFFFFF;}
	.st8{font-family:'MyriadPro-Regular';}
	.st9{font-size:18px;}
</style>
<g id="Artboard">
</g>
<g id="Multicolor">
	<circle class="st0" cx="55" cy="55" r="55"/>
	<g>
		<polygon class="st1" points="55.1,56.3 42.3,56.3 42.3,60.1 51,60.1 		"/>
		<polygon class="st1" points="48.3,62.6 42.3,62.6 42.3,66.4 44.3,66.4 		"/>
		<polygon class="st1" points="61.8,49.9 42.3,49.9 42.3,53.7 57.8,53.7 		"/>
		<path class="st1" d="M67.7,44.4v-7.2c0-1.4-1.1-2.5-2.5-2.5H44.8c-1.4,0-2.5,1.1-2.5,2.5v10.2h22.2L67.7,44.4z M49.3,42.3
			c-1.1,0-1.9-0.9-1.9-1.9s0.9-1.9,1.9-1.9s1.9,0.9,1.9,1.9S50.3,42.3,49.3,42.3z M55.6,42.3c-1.1,0-1.9-0.9-1.9-1.9
			s0.9-1.9,1.9-1.9s1.9,0.9,1.9,1.9S56.7,42.3,55.6,42.3z M62,42.3c-1.1,0-1.9-0.9-1.9-1.9s0.9-1.9,1.9-1.9s1.9,0.9,1.9,1.9
			S63,42.3,62,42.3z"/>
		<path class="st1" d="M72.8,34.7c-1.4,0-2.5,1.1-2.5,2.5V42l7.8-7.3H72.8z"/>
		<rect x="14.4" y="56.3" class="st1" width="25.4" height="3.8"/>
		<path class="st1" d="M39.8,37.2c0-1.4-1.1-2.5-2.5-2.5H16.9c-1.4,0-2.5,1.1-2.5,2.5v10.2h25.4V37.2z M21.3,42.3
			c-1.1,0-1.9-0.9-1.9-1.9s0.9-1.9,1.9-1.9s1.9,0.9,1.9,1.9S22.4,42.3,21.3,42.3z M27.7,42.3c-1.1,0-1.9-0.9-1.9-1.9
			s0.9-1.9,1.9-1.9s1.9,0.9,1.9,1.9S28.7,42.3,27.7,42.3z M34,42.3c-1.1,0-1.9-0.9-1.9-1.9s0.9-1.9,1.9-1.9s1.9,0.9,1.9,1.9
			S35.1,42.3,34,42.3z"/>
		<path class="st1" d="M39.8,69H14.4v3.8c0,1.4,1.1,2.5,2.5,2.5h17.9l5-4.7V69z"/>
		<rect x="14.4" y="49.9" class="st1" width="25.4" height="3.8"/>
		<rect x="14.4" y="62.6" class="st1" width="25.4" height="3.8"/>
		<path class="st2" d="M34,38.5c-1.1,0-1.9,0.9-1.9,1.9s0.9,1.9,1.9,1.9s1.9-0.9,1.9-1.9S35.1,38.5,34,38.5z"/>
		<path class="st3" d="M27.7,38.5c-1.1,0-1.9,0.9-1.9,1.9s0.9,1.9,1.9,1.9s1.9-0.9,1.9-1.9S28.7,38.5,27.7,38.5z"/>
		<path class="st4" d="M21.3,38.5c-1.1,0-1.9,0.9-1.9,1.9s0.9,1.9,1.9,1.9s1.9-0.9,1.9-1.9S22.4,38.5,21.3,38.5z"/>
		<path class="st2" d="M62,38.5c-1.1,0-1.9,0.9-1.9,1.9s0.9,1.9,1.9,1.9s1.9-0.9,1.9-1.9S63,38.5,62,38.5z"/>
		<path class="st3" d="M55.6,38.5c-1.1,0-1.9,0.9-1.9,1.9s0.9,1.9,1.9,1.9s1.9-0.9,1.9-1.9S56.7,38.5,55.6,38.5z"/>
		<path class="st4" d="M49.3,38.5c-1.1,0-1.9,0.9-1.9,1.9s0.9,1.9,1.9,1.9s1.9-0.9,1.9-1.9S50.3,38.5,49.3,38.5z"/>
		<rect x="14.4" y="66.4" class="st5" width="25.4" height="2.5"/>
		<rect x="14.4" y="60.1" class="st5" width="25.4" height="2.5"/>
		<rect x="14.4" y="53.7" class="st5" width="25.4" height="2.5"/>
		<rect x="14.4" y="47.4" class="st5" width="25.4" height="2.5"/>
		<polygon class="st5" points="42.3,66.4 42.3,68.3 44.3,66.4 		"/>
		<polygon class="st5" points="51,60.1 42.3,60.1 42.3,62.6 48.3,62.6 		"/>
		<polygon class="st5" points="57.8,53.7 42.3,53.7 42.3,56.3 55.1,56.3 		"/>
		<polygon class="st5" points="64.5,47.4 42.3,47.4 42.3,49.9 61.8,49.9 		"/>
		<polygon class="st1" points="57.8,53.7 67.7,53.7 67.7,49.9 61.8,49.9 		"/>
		<polygon class="st6" points="57.8,53.7 67.7,53.7 67.7,49.9 61.8,49.9 		"/>
		<polygon class="st1" points="67.7,47.4 67.7,44.4 64.5,47.4 		"/>
		<polygon class="st6" points="67.7,47.4 67.7,44.4 64.5,47.4 		"/>
		<polygon class="st1" points="51,60.1 67.7,60.1 67.7,56.3 55.1,56.3 		"/>
		<polygon class="st6" points="51,60.1 67.7,60.1 67.7,56.3 55.1,56.3 		"/>
		<path class="st1" d="M42.3,72.8c0,1.4,1.1,2.5,2.5,2.5h20.3c1.4,0,2.5-1.1,2.5-2.5V69H42.3V72.8z"/>
		<path class="st6" d="M42.3,72.8c0,1.4,1.1,2.5,2.5,2.5h20.3c1.4,0,2.5-1.1,2.5-2.5V69H42.3V72.8z"/>
		<polygon class="st1" points="44.3,66.4 67.7,66.4 67.7,62.6 48.3,62.6 		"/>
		<polygon class="st6" points="44.3,66.4 67.7,66.4 67.7,62.6 48.3,62.6 		"/>
		<path class="st1" d="M70.2,72.8c0,1.4,1.1,2.5,2.5,2.5H93c1.4,0,2.5-1.1,2.5-2.5V69H70.2V72.8z"/>
		<path class="st6" d="M70.2,72.8c0,1.4,1.1,2.5,2.5,2.5H93c1.4,0,2.5-1.1,2.5-2.5V69H70.2V72.8z"/>
		<rect x="70.2" y="56.3" class="st1" width="25.4" height="3.8"/>
		<rect x="70.2" y="56.3" class="st6" width="25.4" height="3.8"/>
		<path class="st1" d="M95.6,47.4V37.2c0-1.4-1.1-2.5-2.5-2.5h-15L70.2,42v5.4H95.6z M89.9,38.5c1.1,0,1.9,0.9,1.9,1.9
			s-0.9,1.9-1.9,1.9S88,41.4,88,40.4S88.9,38.5,89.9,38.5z M83.6,38.5c1.1,0,1.9,0.9,1.9,1.9s-0.9,1.9-1.9,1.9s-1.9-0.9-1.9-1.9
			S82.5,38.5,83.6,38.5z M77.2,38.5c1.1,0,1.9,0.9,1.9,1.9s-0.9,1.9-1.9,1.9s-1.9-0.9-1.9-1.9S76.2,38.5,77.2,38.5z"/>
		<path class="st6" d="M95.6,47.4V37.2c0-1.4-1.1-2.5-2.5-2.5h-15L70.2,42v5.4H95.6z M89.9,38.5c1.1,0,1.9,0.9,1.9,1.9
			s-0.9,1.9-1.9,1.9S88,41.4,88,40.4S88.9,38.5,89.9,38.5z M83.6,38.5c1.1,0,1.9,0.9,1.9,1.9s-0.9,1.9-1.9,1.9s-1.9-0.9-1.9-1.9
			S82.5,38.5,83.6,38.5z M77.2,38.5c1.1,0,1.9,0.9,1.9,1.9s-0.9,1.9-1.9,1.9s-1.9-0.9-1.9-1.9S76.2,38.5,77.2,38.5z"/>
		<rect x="70.2" y="49.9" class="st1" width="25.4" height="3.8"/>
		<rect x="70.2" y="49.9" class="st6" width="25.4" height="3.8"/>
		<rect x="70.2" y="62.6" class="st1" width="25.4" height="3.8"/>
		<rect x="70.2" y="62.6" class="st6" width="25.4" height="3.8"/>
		<path class="st1" d="M39.8,72.8v-2.1l-5,4.7h2.4C38.6,75.3,39.8,74.2,39.8,72.8z"/>
		<path class="st6" d="M39.8,72.8v-2.1l-5,4.7h2.4C38.6,75.3,39.8,74.2,39.8,72.8z"/>
		<path class="st2" d="M89.9,42.3c1.1,0,1.9-0.9,1.9-1.9s-0.9-1.9-1.9-1.9S88,39.3,88,40.4S88.9,42.3,89.9,42.3z"/>
		<path class="st6" d="M89.9,42.3c1.1,0,1.9-0.9,1.9-1.9s-0.9-1.9-1.9-1.9S88,39.3,88,40.4S88.9,42.3,89.9,42.3z"/>
		<path class="st3" d="M83.6,42.3c1.1,0,1.9-0.9,1.9-1.9s-0.9-1.9-1.9-1.9s-1.9,0.9-1.9,1.9S82.5,42.3,83.6,42.3z"/>
		<path class="st6" d="M83.6,42.3c1.1,0,1.9-0.9,1.9-1.9s-0.9-1.9-1.9-1.9s-1.9,0.9-1.9,1.9S82.5,42.3,83.6,42.3z"/>
		<path class="st4" d="M77.2,42.3c1.1,0,1.9-0.9,1.9-1.9s-0.9-1.9-1.9-1.9s-1.9,0.9-1.9,1.9S76.2,42.3,77.2,42.3z"/>
		<path class="st6" d="M77.2,42.3c1.1,0,1.9-0.9,1.9-1.9s-0.9-1.9-1.9-1.9s-1.9,0.9-1.9,1.9S76.2,42.3,77.2,42.3z"/>
		<polygon class="st5" points="67.7,69 67.7,66.4 44.3,66.4 42.3,68.3 42.3,69 		"/>
		<polygon class="st6" points="67.7,69 67.7,66.4 44.3,66.4 42.3,68.3 42.3,69 		"/>
		<polygon class="st5" points="48.3,62.6 67.7,62.6 67.7,60.1 51,60.1 		"/>
		<polygon class="st6" points="48.3,62.6 67.7,62.6 67.7,60.1 51,60.1 		"/>
		<polygon class="st5" points="55.1,56.3 67.7,56.3 67.7,53.7 57.8,53.7 		"/>
		<polygon class="st6" points="55.1,56.3 67.7,56.3 67.7,53.7 57.8,53.7 		"/>
		<polygon class="st5" points="61.8,49.9 67.7,49.9 67.7,47.4 64.5,47.4 		"/>
		<polygon class="st6" points="61.8,49.9 67.7,49.9 67.7,47.4 64.5,47.4 		"/>
		<rect x="70.2" y="66.4" class="st5" width="25.4" height="2.5"/>
		<rect x="70.2" y="66.4" class="st6" width="25.4" height="2.5"/>
		<rect x="70.2" y="60.1" class="st5" width="25.4" height="2.5"/>
		<rect x="70.2" y="60.1" class="st6" width="25.4" height="2.5"/>
		<rect x="70.2" y="53.7" class="st5" width="25.4" height="2.5"/>
		<rect x="70.2" y="53.7" class="st6" width="25.4" height="2.5"/>
		<rect x="70.2" y="47.4" class="st5" width="25.4" height="2.5"/>
		<rect x="70.2" y="47.4" class="st6" width="25.4" height="2.5"/>
	</g>
</g>
<text transform="matrix(1 0 0 1 43.0991 25.4185)" class="st7 st8 st9">D5</text>
</svg>
