<?xml version="1.0" encoding="utf-8"?>
<!-- Generator: Adobe Illustrator 22.0.1, SVG Export Plug-In . SVG Version: 6.00 Build 0)  -->
<svg version="1.1" id="Layer_1" xmlns="http://www.w3.org/2000/svg" xmlns:xlink="http://www.w3.org/1999/xlink" x="0px" y="0px"
	 viewBox="0 0 110 110" style="enable-background:new 0 0 110 110;" xml:space="preserve">
<style type="text/css">
	.st0{opacity:0.3;enable-background:new    ;}
	.st1{fill:#FFFFFF;}
	.st2{fill:#B6BCBD;}
	.st3{fill:#CFD3D4;}
	.st4{opacity:0.75;enable-background:new    ;}
	.st5{opacity:0.2;enable-background:new    ;}
	.st6{font-family:'MyriadPro-Regular';}
	.st7{font-size:18px;}
</style>
<g id="Artboard">
</g>
<g id="Multicolor">
	<circle class="st0" cx="55" cy="55" r="55"/>
	<g>
		<path class="st1" d="M73,81c0,3.3-2.7,6-6,6H43c-3.3,0-6-2.7-6-6V29c0-3.3,2.7-6,6-6h24c3.3,0,6,2.7,6,6V81z"/>
		<path class="st2" d="M61,26.2c0,0.6-0.4,1-1,1H50c-0.6,0-1-0.4-1-1s0.4-1,1-1h10C60.6,25.2,61,25.6,61,26.2z"/>
		<circle class="st3" cx="55" cy="82" r="3"/>
		<circle class="st1" cx="61.5" cy="46.5" r="2.9"/>
	</g>
</g>
<g>
	<polygon class="st4" points="71,28.9 39,28.9 39,72.1 71,34.7 	"/>
	<polygon class="st4" points="71,77.4 71,34.7 39,72.1 39,77.4 	"/>
	<polygon class="st5" points="71,77.4 71,34.7 39,72.1 39,77.4 	"/>
</g>
<text transform="matrix(1 0 0 1 45.3643 19.2565)" class="st6 st7">C2</text>
</svg>
